<?xml version="1.0" encoding="utf-8"?>
<!-- Generator: Adobe Illustrator 22.0.1, SVG Export Plug-In . SVG Version: 6.00 Build 0)  -->
<svg version="1.1" xmlns="http://www.w3.org/2000/svg" xmlns:xlink="http://www.w3.org/1999/xlink" x="0px" y="0px"
	 viewBox="0 0 24 24" style="enable-background:new 0 0 24 24;" xml:space="preserve">
<style type="text/css">
	.st0{clip-path:url(#SVGID_2_);}
	.st1{clip-path:url(#SVGID_4_);fill:#FDDA14;}
	.st2{clip-path:url(#SVGID_6_);}
	.st3{clip-path:url(#SVGID_8_);fill:#FDDA14;}
</style>
<g id="Layer_1">
	<title>Shape</title>
	<desc>Created with Sketch.</desc>
	<g>
		<defs>
			<path id="SVGID_1_" d="M9,9.8L7.4,6.4L6,9.8H9z M10.3,12.9l-0.5-1.2H5.1l-0.5,1.2c-0.5,1.1-2,0.2-1.4-0.9l3.5-7.8
				c0.3-0.8,1.2-0.7,1.6,0l3.6,7.8c0.2,0.6,0,1.1-0.4,1.3C11,13.5,10.5,13.4,10.3,12.9z"/>
		</defs>
		<clipPath id="SVGID_2_">
			<use xlink:href="#SVGID_1_"  style="overflow:visible;"/>
		</clipPath>
		<g class="st0">
			<defs>
				<rect id="SVGID_3_" x="-206.1" y="-879.8" width="290.2" height="1085.7"/>
			</defs>
			<clipPath id="SVGID_4_">
				<use xlink:href="#SVGID_3_"  style="overflow:visible;"/>
			</clipPath>
			<rect x="-1" y="-0.4" class="st1" width="16.9" height="17.8"/>
		</g>
	</g>
</g>
<g id="Layer_2">
	<g>
		<defs>
			<path id="SVGID_5_" d="M17.3,11c-0.5-0.3-1-0.4-1.4-0.4c-1,0-2.1,0.6-2.1,0.8c0,0.3,0.3,0.6,0.8,0.9c0.4,0.3,0.8,0.4,1,0.4
				c0.3,0,1.4-0.5,3.3-1.1l0.1,0.1c-0.2,0.6-0.3,1.1-0.5,1.6c-3.2,1-5,2.1-5,3c0,1.1,1.7,2.1,4.7,2.1c0.8,0,1.6-0.1,2.3-0.2l0.2,0.2
				c-0.9,0.7-1.7,1.2-2.4,1.6c-0.4,0.1-0.8,0.1-1.2,0.1c-2.5,0-4.5-1-4.5-3.3c0-1,0.4-2,1.5-3c-0.8-0.5-1.3-1.1-1.3-1.8
				c0-0.5,0.1-0.9,0.5-1.6c0.5-0.7,1.3-1.3,2.2-1.3c0.9,0,1.6,0.5,2.2,1.4L17.3,11z"/>
		</defs>
		<clipPath id="SVGID_6_">
			<use xlink:href="#SVGID_5_"  style="overflow:visible;"/>
		</clipPath>
		<g class="st2">
			<defs>
				<rect id="SVGID_7_" x="-206.2" y="-880.9" width="290.2" height="1085.7"/>
			</defs>
			<clipPath id="SVGID_8_">
				<use xlink:href="#SVGID_7_"  style="overflow:visible;"/>
			</clipPath>
			<rect x="8.5" y="5.3" class="st3" width="16.2" height="19"/>
		</g>
	</g>
</g>
</svg>
