<svg xmlns="http://www.w3.org/2000/svg" width="573" height="171.5" viewBox="0 0 573 171.5"><title>logo</title><g id="logo-ar-yellow"><path id="_Compound_Path_" data-name="&lt;Compound Path&gt;" d="M426.23,34.64h4.58V74.85a.36.36,0,0,1-.37.37H426.6a.37.37,0,0,1-.37-.37Z" style="fill:#f4f4f4"/><path id="_Compound_Path_2" data-name="&lt;Compound Path&gt;" d="M439.8,34.64h4.29L469,66.32a.37.37,0,0,0,.66-.22V34.64h4.46V74.85a.36.36,0,0,1-.37.37h-3.1a.37.37,0,0,1-.29-.14l-26.1-33.14V74.85a.36.36,0,0,1-.37.37h-3.72a.36.36,0,0,1-.37-.37Z" style="fill:#f4f4f4"/><path id="_Compound_Path_3" data-name="&lt;Compound Path&gt;" d="M482.7,34.64h29.17v4.23H487.28V53.05a.37.37,0,0,0,.37.37h21.24a.38.38,0,0,1,.37.37v3.38a.37.37,0,0,1-.37.37H487.65a.38.38,0,0,0-.37.37V74.85a.36.36,0,0,1-.37.37h-3.84a.37.37,0,0,1-.37-.37Z" style="fill:#f4f4f4"/><path id="_Compound_Path_4" data-name="&lt;Compound Path&gt;" d="M536.68,75.92a20.6,20.6,0,0,1-8.43-1.68,20.12,20.12,0,0,1-6.53-4.55,20.51,20.51,0,0,1-4.2-6.67,21.89,21.89,0,0,1-1.48-8v-.12a21.54,21.54,0,0,1,1.51-8,21.05,21.05,0,0,1,27.69-11.31,20.18,20.18,0,0,1,6.52,4.55,20.51,20.51,0,0,1,4.2,6.67,21.7,21.7,0,0,1,1.48,8s0,.07,0,.11a21.5,21.5,0,0,1-1.51,8,20.3,20.3,0,0,1-19.25,13Zm.12-4.23a15.6,15.6,0,0,0,6.41-1.31,15.18,15.18,0,0,0,5-3.56,17,17,0,0,0,3.28-5.28,17.57,17.57,0,0,0,1.19-6.49v-.12a17.81,17.81,0,0,0-1.19-6.52,16,16,0,0,0-8.41-8.9,15.27,15.27,0,0,0-6.41-1.34,15.52,15.52,0,0,0-6.4,1.31,15.22,15.22,0,0,0-5,3.56A16.77,16.77,0,0,0,522,48.32a17.39,17.39,0,0,0-1.19,6.5v.11A17.6,17.6,0,0,0,522,61.45a15.92,15.92,0,0,0,8.4,8.9A15.27,15.27,0,0,0,536.8,71.69Z" style="fill:#f4f4f4"/><path id="_Compound_Path_5" data-name="&lt;Compound Path&gt;" d="M412.54,69.83h5a.37.37,0,0,1,.36.37v5.35a.37.37,0,0,1-.36.37h-5Z" style="fill:#f4f4f4"/><rect id="REC-L" x="19.15" y="135.17" width="148.9" height="9.45" rx="1.51" ry="1.51" style="fill:#fcd735"/><rect id="REC-R" x="412.54" y="15.25" width="145" height="9.54" rx="1.65" ry="1.65" style="fill:#fcd735"/><g id="REFUGEE"><path id="_Compound_Path_6" data-name="&lt;Compound Path&gt;" d="M19.15,16a.74.74,0,0,1,.74-.74h26q11.11,0,17,5.93,5,5,5,13.37v.17q0,7.09-3.47,11.57a19.91,19.91,0,0,1-8.21,6.22.75.75,0,0,0-.34,1.11l13,19a.73.73,0,0,1-.61,1.15H55.06a.73.73,0,0,1-.61-.33L42.14,55.05H32.76a.74.74,0,0,0-.74.74V73a.74.74,0,0,1-.74.74H19.89a.74.74,0,0,1-.74-.74ZM45.06,43.69q4.75,0,7.31-2.26a7.63,7.63,0,0,0,2.55-6v-.17q0-4.18-2.68-6.27t-7.43-2.09H32.76a.74.74,0,0,0-.74.74V43a.74.74,0,0,0,.74.74Z" style="fill:#f4f4f4"/><path id="_Compound_Path_7" data-name="&lt;Compound Path&gt;" d="M76.13,15.28h42.56a.74.74,0,0,1,.74.74V26a.74.74,0,0,1-.74.74H88.83a.74.74,0,0,0-.74.74V37.85a.74.74,0,0,0,.74.74h26.1a.74.74,0,0,1,.74.74v10a.74.74,0,0,1-.74.74H88.83a.74.74,0,0,0-.74.74v10.8a.74.74,0,0,0,.74.74h30.28a.74.74,0,0,1,.74.74V73a.74.74,0,0,1-.74.74h-43a.74.74,0,0,1-.74-.74V16A.74.74,0,0,1,76.13,15.28Z" style="fill:#f4f4f4"/><path id="_Compound_Path_8" data-name="&lt;Compound Path&gt;" d="M127.94,15.28H171a.74.74,0,0,1,.74.74V26.15a.74.74,0,0,1-.74.74H140.81a.74.74,0,0,0-.74.74V38.77a.74.74,0,0,0,.74.74h26.43a.74.74,0,0,1,.74.74V50.39a.74.74,0,0,1-.74.74H140.81a.74.74,0,0,0-.74.74V73a.74.74,0,0,1-.74.74H127.94a.74.74,0,0,1-.74-.74V16A.74.74,0,0,1,127.94,15.28Z" style="fill:#f4f4f4"/><path id="_Compound_Path_9" data-name="&lt;Compound Path&gt;" d="M202.24,74.69q-11.78,0-18.55-6.52T176.92,48.7V16a.74.74,0,0,1,.74-.74h11.39a.74.74,0,0,1,.74.74V48.37q0,7.18,3.34,10.82c2.23,2.43,5.32,3.63,9.28,3.63s7.05-1.16,9.27-3.51S215,53.47,215,48.79V16a.74.74,0,0,1,.74-.74h11.38a.74.74,0,0,1,.74.74V48.29A33.88,33.88,0,0,1,226.1,59.9,21.88,21.88,0,0,1,221,68.13a21,21,0,0,1-8.1,4.93A32.6,32.6,0,0,1,202.24,74.69Z" style="fill:#f4f4f4"/><path id="_Compound_Path_10" data-name="&lt;Compound Path&gt;" d="M265,75.78a33.22,33.22,0,0,1-12.49-2.26,28.9,28.9,0,0,1-9.7-6.26,28.31,28.31,0,0,1-6.3-9.53,31.39,31.39,0,0,1-2.26-12v-.17a29.92,29.92,0,0,1,18.38-27.87,31,31,0,0,1,12.28-2.38,43.35,43.35,0,0,1,7.15.54,34.83,34.83,0,0,1,6,1.55,27.85,27.85,0,0,1,5.18,2.51,36.73,36.73,0,0,1,4.1,2.94.75.75,0,0,1,.1,1.05l-7.16,8.64a.74.74,0,0,1-1,.09,32.5,32.5,0,0,0-2.77-2A22.22,22.22,0,0,0,273,28.73a20.66,20.66,0,0,0-3.88-1.17,24.25,24.25,0,0,0-4.6-.42,14.9,14.9,0,0,0-6.56,1.47,17.64,17.64,0,0,0-5.35,3.94A18,18,0,0,0,249,38.33a19.06,19.06,0,0,0-1.3,7.07v.17A20.46,20.46,0,0,0,249,53a17.49,17.49,0,0,0,3.67,5.91,16.84,16.84,0,0,0,5.6,3.89,18,18,0,0,0,7.15,1.38,20.45,20.45,0,0,0,11.79-3.3.75.75,0,0,0,.33-.62V53a.75.75,0,0,0-.74-.74H265.32a.74.74,0,0,1-.74-.74V41.84a.74.74,0,0,1,.74-.74h23.93a.74.74,0,0,1,.74.74V66.16a.74.74,0,0,1-.27.57,42.83,42.83,0,0,1-10.47,6.33A35.34,35.34,0,0,1,265,75.78Z" style="fill:#f4f4f4"/><path id="_Compound_Path_11" data-name="&lt;Compound Path&gt;" d="M298.91,15.28h42.56a.74.74,0,0,1,.74.74V26a.74.74,0,0,1-.74.74H311.61a.74.74,0,0,0-.73.74V37.85a.74.74,0,0,0,.73.74h26.1a.74.74,0,0,1,.74.74v10a.74.74,0,0,1-.74.74h-26.1a.74.74,0,0,0-.73.74v10.8a.74.74,0,0,0,.73.74h30.28a.74.74,0,0,1,.74.74V73a.74.74,0,0,1-.74.74h-43a.74.74,0,0,1-.74-.74V16A.74.74,0,0,1,298.91,15.28Z" style="fill:#f4f4f4"/><path id="_Compound_Path_12" data-name="&lt;Compound Path&gt;" d="M350.72,15.28h42.56A.74.74,0,0,1,394,16V26a.74.74,0,0,1-.74.74H363.43a.74.74,0,0,0-.74.74V37.85a.74.74,0,0,0,.74.74h26.09a.74.74,0,0,1,.74.74v10a.74.74,0,0,1-.74.74H363.43a.74.74,0,0,0-.74.74v10.8a.74.74,0,0,0,.74.74H393.7a.74.74,0,0,1,.74.74V73a.74.74,0,0,1-.74.74h-43A.74.74,0,0,1,350,73V16A.74.74,0,0,1,350.72,15.28Z" style="fill:#f4f4f4"/></g><g id="TAGLINE-AR"><path d="M274.87,111.65a26.72,26.72,0,0,0-17.62,7.62l5.13,6.87a15.18,15.18,0,0,1,26.67,9l-38.3,0c-2.43,0-5,0-7.08-1.27-2.56-1.5-3.86-4.41-5.58-6.82a20.39,20.39,0,0,0-20.37-7.88l0,9.38c3.31-1.33,7.36,1,8.51,4.39s-.24,7.28-2.79,9.77a17.45,17.45,0,0,1-9.62,4.33c-5.41.85-11.43,0-15.39-3.81a17.41,17.41,0,0,1-4.78-10,51.87,51.87,0,0,1-.1-11.28c0,.08-8.33,0-9.09,0s-1.68-.06-1.71.37c0,0-.23,4.71-.21,6.06.06,5.37.91,10.85,3.51,15.61,5.46,10,18,14.77,29.24,13.06,9.41-1.42,18.66-7.67,21-16.91,3.39,4.12,9.47,4.47,14.82,4.48l48.49.11c.2-8.59-.63-17.79-6-24.53a23.28,23.28,0,0,0-17.88-8.53Z" style="fill:#f4f4f4"/><rect x="271.48" y="148.21" width="8.86" height="8.22" style="fill:#f4f4f4"/><path d="M202.81,111.57h-8.64c-1.09-.42-1.64-1.49-1.64-3.19q0-3.41,2.63-3.4,1.77,0,2.55,2.34l5-2.34q-2.27-5.24-7.51-5.24a8.13,8.13,0,0,0-6.13,2.55,8.84,8.84,0,0,0-2.44,6.38,9.33,9.33,0,0,0,.56,2.9h-4.39v5.74h20Z" style="fill:#f4f4f4"/><path d="M363,128.22q0,6.94-5,6.95H342.41a21.43,21.43,0,0,0,1.13-7.16V99h-9.85v29.34a10.06,10.06,0,0,1-.42,3.68,4.54,4.54,0,0,1-4.61,3.12h-.92L319,103.78H308.54l8.92,31.39H306.83v9.49H360q6.3,0,9.78-4.32a14.13,14.13,0,0,0,3.11-9.35V99H363Z" style="fill:#f4f4f4"/><rect x="380.1" y="98.96" width="9.92" height="45.7" style="fill:#f4f4f4"/><rect x="475.69" y="148.21" width="8.79" height="8.22" style="fill:#f4f4f4"/><rect x="462.37" y="148.21" width="8.79" height="8.22" style="fill:#f4f4f4"/><path d="M502.27,144.66q6.3,0,9.78-4.32a14.18,14.18,0,0,0,3.11-9.35V99h-9.92v29.19c0,4.63-1.67,6.95-5,6.95H484.34a21.18,21.18,0,0,0,1.13-7.16V112.56h-10v15.81q0,6.8-5,6.8H454.86V99h-9.92v32.38q0,7.44-3.29,11.62a12,12,0,0,1-18.32-.17Q420,138.49,420,131.41v-6.09h-9.92v7a24.11,24.11,0,0,0,6.51,17.14,21,21,0,0,0,15.88,7,21.3,21.3,0,0,0,11.34-3.12,21.71,21.71,0,0,0,8-8.65Z" style="fill:#f4f4f4"/><path d="M542.8,113.91q-3.82-1.35-13.25-1.35v8.3q9.42,0,13.71,3.43t4.29,10.88H521.83v9.49h35.64V135.1Q557.47,119.08,542.8,113.91Z" style="fill:#f4f4f4"/></g></g></svg>